<?xml version="1.0" ?><svg enable-background="new 0 0 52 52" id="Layer_1" version="1.1" viewBox="0 0 52 52" xml:space="preserve" xmlns="http://www.w3.org/2000/svg" xmlns:xlink="http://www.w3.org/1999/xlink"><g><g><g><g><path d="M2,29.8924866v15h1c1.0999756,0,2,0.8900146,2,2v3h42v-3c0-1.1099854,0.9000244-2,2-2h1v-15H2z       M45,46.8924866v1H7v-1c0-0.7299805-0.2000122-1.4099731-0.5299683-2C5.9299927,43.9725037,5.0499878,43.2825012,4,43.0124817      V31.8924866h44v11.1199951c-1.0499878,0.2700195-1.9299927,0.960022-2.4699707,1.8800049      C45.2000122,45.4825134,45,46.1625061,45,46.8924866z" fill="#0096E6"/></g><g><path d="M45.5300293,44.8924866C45.2000122,45.4825134,45,46.1625061,45,46.8924866v1H7v-1      c0-0.7299805-0.2000122-1.4099731-0.5299683-2H45.5300293z" fill="#D0E8F9"/></g></g><g><g><path d="M9,33.8924866c-1.6500244,0-3,1.3400269-3,3c0,1.6500244,1.3499756,3,3,3s3-1.3499756,3-3      C12,35.2325134,10.6500244,33.8924866,9,33.8924866z M9,37.8924866c-0.5499878,0-1-0.4500122-1-1c0-0.5599976,0.4500122-1,1-1      s1,0.4400024,1,1C10,37.4424744,9.5499878,37.8924866,9,37.8924866z" fill="#0096E6"/></g><g><path d="M10,36.8924866c0,0.5499878-0.4500122,1-1,1s-1-0.4500122-1-1c0-0.5599976,0.4500122-1,1-1      S10,36.332489,10,36.8924866z" fill="#D0E8F9"/></g></g><g><g><rect fill="#0096E6" height="44.8218689" transform="matrix(0.6246951 -0.7808688 0.7808688 0.6246951 -1.3652152 30.9360504)" width="2.0002139" x="30.5004425" y="-5.5226598"/></g></g></g><g><g><rect fill="#0096E6" height="2" width="46" x="3" y="42.8924866"/></g></g></g></svg>